<svg width="48" height="48" viewBox="0 0 48 48" fill="none" xmlns="http://www.w3.org/2000/svg">
<circle cx="24.0001" cy="23.9998" r="23.3333" fill="#FCD200"/>
<path d="M15.5 8.5C15.5 8.5 13.7674 11.1008 10.7459 12.2401C7.72438 13.3795 6 13 6 13" stroke="#FE5E54" stroke-width="1.16667"/>
<path d="M32.8401 8.5C32.8401 8.5 34.5727 11.1008 37.5942 12.2401C40.6157 13.3795 42.3401 13 42.3401 13" stroke="#FE5E54" stroke-width="1.16667"/>
<path d="M16.2224 16.9997C16.2224 19.1475 14.4812 19.4997 12.3335 19.4997C10.1857 19.4997 8.44458 19.1475 8.44458 16.9997C8.44458 14.852 10.1857 13.1108 12.3335 13.1108C14.4812 13.1108 16.2224 14.852 16.2224 16.9997Z" fill="white"/>
<circle cx="13.5558" cy="16.5551" r="1.55556" fill="#292929"/>
<path d="M39.5556 16.9997C39.5556 19.1475 37.8145 19.4997 35.6667 19.4997C33.5189 19.4997 31.7778 19.1475 31.7778 16.9997C31.7778 14.852 33.5189 13.1108 35.6667 13.1108C37.8145 13.1108 39.5556 14.852 39.5556 16.9997Z" fill="white"/>
<circle cx="37.5558" cy="16.5551" r="1.55556" fill="#292929"/>
<path d="M14.6667 29.8329C14.6667 29.8329 20.1667 29.4995 26.0001 29.4995C31.8334 29.4995 33.0001 33.4995 33.0001 33.4995" stroke="#FE5E54" stroke-width="1.16667"/>
</svg>
