<svg width="90" height="90" viewBox="0 0 90 90" fill="none" xmlns="http://www.w3.org/2000/svg">
<circle cx="45" cy="45" r="45" fill="#FCD200"/>
<path d="M30.803 21.9932C30.803 21.9932 25.8779 18.1817 19.8737 19.8348C13.8694 21.488 11.5894 27.2833 11.5894 27.2833" stroke="#FE5E54" stroke-width="2.25"/>
<path d="M61.3658 22.6494C61.3658 22.6494 66.3804 18.9564 72.3435 20.7523C78.3066 22.5482 80.4478 28.3962 80.4478 28.3962" stroke="#FE5E54" stroke-width="2.25"/>
<circle cx="23.5713" cy="35.1426" r="7.5" fill="white"/>
<circle cx="23.5713" cy="35.1426" r="3" fill="#292929"/>
<circle cx="68.5713" cy="35.1426" r="7.5" fill="white"/>
<circle cx="68.5712" cy="35.1426" r="3" fill="#292929"/>
<path d="M45.9641 65.2499C30.4332 65.2499 19.9284 56.5713 19.9284 56.5713C19.9284 56.5713 28.7471 76.6887 45.2218 77.7559C59.8652 78.7045 70.0713 56.5713 70.0713 56.5713C70.0713 56.5713 61.495 65.2499 45.9641 65.2499Z" fill="#FFBCB8" stroke="#FE5E54" stroke-width="2.25"/>
</svg>
