<svg width="90" height="90" viewBox="0 0 90 90" fill="none" xmlns="http://www.w3.org/2000/svg">
<circle cx="45.0001" cy="45" r="45" fill="#FCD200"/>
<path d="M30.8029 21.9932C30.8029 21.9932 25.8779 18.1817 19.8736 19.8348C13.8694 21.488 11.5894 27.2833 11.5894 27.2833" stroke="#FE5E54" stroke-width="2.25"/>
<path d="M61.3657 22.6504C61.3657 22.6504 66.3802 18.9574 72.3433 20.7533C78.3065 22.5492 80.4476 28.3972 80.4476 28.3972" stroke="#FE5E54" stroke-width="2.25"/>
<path d="M29.3571 33.75C29.3571 33.75 27.045 37.1833 22.9111 37.3936C18.7772 37.6039 16.1287 34.423 16.1287 34.423" stroke="#FE5E54" stroke-width="2.25"/>
<path d="M76.1717 34.6436C76.1717 34.6436 73.4201 37.7358 69.2953 37.3898C65.1706 37.0439 62.9725 33.5365 62.9725 33.5365" stroke="#FE5E54" stroke-width="2.25"/>
<path d="M27.0001 56.25C27.0001 56.25 33.7501 65.25 45.0001 65.25C56.2501 65.25 63.0001 56.25 63.0001 56.25" stroke="#FE5E54" stroke-width="2.25"/>
</svg>
