<svg width="48" height="48" viewBox="0 0 48 48" fill="none" xmlns="http://www.w3.org/2000/svg">
<circle cx="24.0001" cy="23.9998" r="23.3333" fill="#FCD200"/>
<circle cx="12.3335" cy="16.9997" r="3.88889" fill="white"/>
<circle cx="12.3334" cy="16.9999" r="1.55556" fill="#292929"/>
<circle cx="35.6667" cy="16.9997" r="3.88889" fill="white"/>
<circle cx="35.6669" cy="16.9999" r="1.55556" fill="#292929"/>
<path d="M24.0002 27.4996C18.1669 27.4996 16.0002 28.9244 16.0002 32.9996C16.0002 36.9996 18.2401 32.9996 24.0002 32.9996C29.7604 32.9996 31.5002 36.4996 31.5002 32.9996C31.5002 28.9244 29.8336 27.4996 24.0002 27.4996Z" fill="#FFBCB8" stroke="#FE5E54" stroke-width="1.16667"/>
<path d="M15.5 11C15.5 11 12.5714 9.63957 9.72589 11.1662C6.88038 12.6928 6.39437 15.8852 6.39437 15.8852" stroke="#FE5E54" stroke-width="1.16667"/>
<path d="M32.7407 11.018C32.7407 11.018 35.7536 9.85609 38.4909 11.5692C41.2282 13.2823 41.5 16.5 41.5 16.5" stroke="#FE5E54" stroke-width="1.16667"/>
</svg>
