<svg width="48" height="48" viewBox="0 0 48 48" fill="none" xmlns="http://www.w3.org/2000/svg">
<circle cx="24.0001" cy="23.9998" r="23.3333" fill="#FCD200"/>
<path d="M17.2812 17C17.2812 17 15.6126 19.7646 12.3997 20.0884C9.1868 20.4122 7.00001 18.0362 7.00001 18.0362" stroke="#FE5E54" stroke-width="1.16667"/>
<path d="M31.3284 17C31.3284 17 32.9218 19.8086 36.1248 20.2191C39.3278 20.6295 41.5779 18.3133 41.5779 18.3133" stroke="#FE5E54" stroke-width="1.16667"/>
<path d="M15.5 8.5C15.5 8.5 13.7674 11.1008 10.7459 12.2401C7.72438 13.3795 6 13 6 13" stroke="#FE5E54" stroke-width="1.16667"/>
<path d="M32.8401 8.5C32.8401 8.5 34.5727 11.1008 37.5942 12.2401C40.6157 13.3795 42.3401 13 42.3401 13" stroke="#FE5E54" stroke-width="1.16667"/>
<path d="M24 27.9996C18.1667 27.9996 16 29.4244 16 33.4996C16 37.4996 18.2399 33.4996 24 33.4996C29.7601 33.4996 31.5 36.9996 31.5 33.4996C31.5 29.4244 29.8333 27.9996 24 27.9996Z" fill="#FFBCB8" stroke="#FE5E54" stroke-width="1.16667"/>
</svg>
